HIERARCHY
ROOT Root
{
  OFFSET 0.0 0.0 0.0
  CHANNELS 6 Xposition Yposition Zposition Zrotation Yrotation Xrotation
  JOINT Hips
  {
    OFFSET 0.0 100.0 0.0
    CHANNELS 6 Xposition Yposition Zposition Zrotation Yrotation Xrotation
    JOINT Spine1
    {
      OFFSET -0.013727 5.003763 -0.053727
      CHANNELS 3 Zrotation Yrotation Xrotation
      JOINT Spine2
      {
        OFFSET -0.0 7.125301 -0.029825
        CHANNELS 3 Zrotation Yrotation Xrotation
        JOINT Chest
        {
          OFFSET -1e-06 7.550063 -0.815971
          CHANNELS 3 Zrotation Yrotation Xrotation
          JOINT Neck1
          {
            OFFSET -0.181677 26.311295 -0.553348
            CHANNELS 3 Zrotation Yrotation Xrotation
            JOINT Neck2
            {
              OFFSET -3e-06 7.709397 2.302585
              CHANNELS 3 Zrotation Yrotation Xrotation
              JOINT Head
              {
                OFFSET -5e-06 6.128916 1.953709
                CHANNELS 3 Zrotation Yrotation Xrotation
                JOINT HeadEnd
                {
                  OFFSET 0.003598 16.065403 -1.835379
                  CHANNELS 3 Zrotation Yrotation Xrotation
                }
                JOINT Jaw
                {
                  OFFSET 0.002637 0.475592 3.094941
                  CHANNELS 3 Zrotation Yrotation Xrotation
                }
                JOINT LeftEye
                {
                  OFFSET 3.206381 5.380205 7.586883
                  CHANNELS 3 Zrotation Yrotation Xrotation
                }
                JOINT RightEye
                {
                  OFFSET -3.22244 5.361869 7.558234
                  CHANNELS 3 Zrotation Yrotation Xrotation
                }
              }
            }
          }
          JOINT LeftShoulder
          {
            OFFSET 1.621652 23.237164 5.113413
            CHANNELS 3 Zrotation Yrotation Xrotation
            JOINT LeftArm
            {
              OFFSET 14.919846 2e-06 -5.502326
              CHANNELS 3 Zrotation Yrotation Xrotation
              JOINT LeftForeArm
              {
                OFFSET 28.739307 0.0 -0.002588
                CHANNELS 3 Zrotation Yrotation Xrotation
                JOINT LeftHand
                {
                  OFFSET 27.093981 -1e-06 0.002609
                  CHANNELS 3 Zrotation Yrotation Xrotation
                  JOINT LeftHandThumb1
                  {
                    OFFSET 2.276482 -1.392045 3.191413
                    CHANNELS 3 Zrotation Yrotation Xrotation
                    JOINT LeftHandThumb2
                    {
                      OFFSET 4.012836 -1.828127 1.641654
                      CHANNELS 3 Zrotation Yrotation Xrotation
                      JOINT LeftHandThumb3
                      {
                        OFFSET 2.798515 0.0 -3e-06
                        CHANNELS 3 Zrotation Yrotation Xrotation
                        JOINT LeftHandThumbEnd
                        {
                          OFFSET 3.180793 -4e-06 4e-06
                          CHANNELS 3 Zrotation Yrotation Xrotation
                        }
                      }
                    }
                  }
                  JOINT LeftHandIndex1
                  {
                    OFFSET 3.247555 -0.531998 2.296169
                    CHANNELS 3 Zrotation Yrotation Xrotation
                    JOINT LeftHandIndex2
                    {
                      OFFSET 6.364578 0.01206 0.1786
                      CHANNELS 3 Zrotation Yrotation Xrotation
                      JOINT LeftHandIndex3
                      {
                        OFFSET 3.662364 0.0 0.0
                        CHANNELS 3 Zrotation Yrotation Xrotation
                        JOINT LeftHandIndex4
                        {
                          OFFSET 2.329242 4e-06 4e-06
                          CHANNELS 3 Zrotation Yrotation Xrotation
                          JOINT LeftHandIndexEnd
                          {
                            OFFSET 2.759615 -0.180537 -0.113024
                            CHANNELS 3 Zrotation Yrotation Xrotation
                          }
                        }
                      }
                    }
                  }
                  JOINT LeftHandMiddle1
                  {
                    OFFSET 3.163495 0.240981 1.000332
                    CHANNELS 3 Zrotation Yrotation Xrotation
                    JOINT LeftHandMiddle2
                    {
                      OFFSET 6.19078 -0.259278 -1.002548
                      CHANNELS 3 Zrotation Yrotation Xrotation
                      JOINT LeftHandMiddle3
                      {
                        OFFSET 4.35652 -4e-06 -1e-06
                        CHANNELS 3 Zrotation Yrotation Xrotation
                        JOINT LeftHandMiddle4
                        {
                          OFFSET 2.996877 -8e-06 0.0
                          CHANNELS 3 Zrotation Yrotation Xrotation
                          JOINT LeftHandMiddleEnd
                          {
                            OFFSET 2.304287 -0.294569 -0.031741
                            CHANNELS 3 Zrotation Yrotation Xrotation
                          }
                        }
                      }
                    }
                  }
                  JOINT LeftHandRing1
                  {
                    OFFSET 2.882643 -0.053652 -0.322543
                    CHANNELS 3 Zrotation Yrotation Xrotation
                    JOINT LeftHandRing2
                    {
                      OFFSET 5.854541 -0.486202 -1.373841
                      CHANNELS 3 Zrotation Yrotation Xrotation
                      JOINT LeftHandRing3
                      {
                        OFFSET 4.350578 0.0 3e-06
                        CHANNELS 3 Zrotation Yrotation Xrotation
                        JOINT LeftHandRing4
                        {
                          OFFSET 2.651321 7e-06 2e-06
                          CHANNELS 3 Zrotation Yrotation Xrotation
                          JOINT LeftHandRingEnd
                          {
                            OFFSET 1.936105 0.077687 -7.1e-05
                            CHANNELS 3 Zrotation Yrotation Xrotation
                          }
                        }
                      }
                    }
                  }
                  JOINT LeftHandPinky1
                  {
                    OFFSET 2.8655 -0.310005 -1.600378
                    CHANNELS 3 Zrotation Yrotation Xrotation
                    JOINT LeftHandPinky2
                    {
                      OFFSET 5.087849 -1.331141 -1.77123
                      CHANNELS 3 Zrotation Yrotation Xrotation
                      JOINT LeftHandPinky3
                      {
                        OFFSET 3.070974 4e-06 0.0
                        CHANNELS 3 Zrotation Yrotation Xrotation
                        JOINT LeftHandPinky4
                        {
                          OFFSET 1.549672 0.0 1e-06
                          CHANNELS 3 Zrotation Yrotation Xrotation
                          JOINT LeftHandPinkyEnd
                          {
                            OFFSET 1.944893 -0.157802 0.057219
                            CHANNELS 3 Zrotation Yrotation Xrotation
                          }
                        }
                      }
                    }
                  }
                }
              }
            }
          }
          JOINT RightShoulder
          {
            OFFSET -1.380118 23.180309 5.214158
            CHANNELS 3 Zrotation Yrotation Xrotation
            JOINT RightArm
            {
              OFFSET -15.037196 1.2e-05 -5.545604
              CHANNELS 3 Zrotation Yrotation Xrotation
              JOINT RightForeArm
              {
                OFFSET -28.736639 2e-06 -0.002597
                CHANNELS 3 Zrotation Yrotation Xrotation
                JOINT RightHand
                {
                  OFFSET -27.133619 -0.0 0.002613
                  CHANNELS 3 Zrotation Yrotation Xrotation
                  JOINT RightHandThumb1
                  {
                    OFFSET -2.274032 -1.383988 3.163127
                    CHANNELS 3 Zrotation Yrotation Xrotation
                    JOINT RightHandThumb2
                    {
                      OFFSET -4.011429 -1.827466 1.640914
                      CHANNELS 3 Zrotation Yrotation Xrotation
                      JOINT RightHandThumb3
                      {
                        OFFSET -2.794935 -4e-06 -3e-06
                        CHANNELS 3 Zrotation Yrotation Xrotation
                        JOINT RightHandThumbEnd
                        {
                          OFFSET -3.183852 4e-06 1e-06
                          CHANNELS 3 Zrotation Yrotation Xrotation
                        }
                      }
                    }
                  }
                  JOINT RightHandIndex1
                  {
                    OFFSET -3.253266 -0.520057 2.282866
                    CHANNELS 3 Zrotation Yrotation Xrotation
                    JOINT RightHandIndex2
                    {
                      OFFSET -6.341917 0.012471 0.178266
                      CHANNELS 3 Zrotation Yrotation Xrotation
                      JOINT RightHandIndex3
                      {
                        OFFSET -3.654871 -8e-06 -0.0
                        CHANNELS 3 Zrotation Yrotation Xrotation
                        JOINT RightHandIndex4
                        {
                          OFFSET -2.327586 0.0 1e-06
                          CHANNELS 3 Zrotation Yrotation Xrotation
                          JOINT RightHandIndexEnd
                          {
                            OFFSET -2.76179 -0.180656 -0.113078
                            CHANNELS 3 Zrotation Yrotation Xrotation
                          }
                        }
                      }
                    }
                  }
                  JOINT RightHandMiddle1
                  {
                    OFFSET -3.168106 0.246593 1.00103
                    CHANNELS 3 Zrotation Yrotation Xrotation
                    JOINT RightHandMiddle2
                    {
                      OFFSET -6.180828 -0.258836 -1.000895
                      CHANNELS 3 Zrotation Yrotation Xrotation
                      JOINT RightHandMiddle3
                      {
                        OFFSET -4.348901 0.0 -0.0
                        CHANNELS 3 Zrotation Yrotation Xrotation
                        JOINT RightHandMiddle4
                        {
                          OFFSET -3.00024 -4e-06 -2e-06
                          CHANNELS 3 Zrotation Yrotation Xrotation
                          JOINT RightHandMiddleEnd
                          {
                            OFFSET -2.30252 -0.29437 -0.031706
                            CHANNELS 3 Zrotation Yrotation Xrotation
                          }
                        }
                      }
                    }
                  }
                  JOINT RightHandRing1
                  {
                    OFFSET -2.88569 -0.067952 -0.308858
                    CHANNELS 3 Zrotation Yrotation Xrotation
                    JOINT RightHandRing2
                    {
                      OFFSET -5.854198 -0.48613 -1.373731
                      CHANNELS 3 Zrotation Yrotation Xrotation
                      JOINT RightHandRing3
                      {
                        OFFSET -4.33881 -4e-06 -0.0
                        CHANNELS 3 Zrotation Yrotation Xrotation
                        JOINT RightHandRing4
                        {
                          OFFSET -2.654903 -4e-06 4e-06
                          CHANNELS 3 Zrotation Yrotation Xrotation
                          JOINT RightHandRingEnd
                          {
                            OFFSET -1.933568 0.077527 -5.2e-05
                            CHANNELS 3 Zrotation Yrotation Xrotation
                          }
                        }
                      }
                    }
                  }
                  JOINT RightHandPinky1
                  {
                    OFFSET -2.866425 -0.342796 -1.584145
                    CHANNELS 3 Zrotation Yrotation Xrotation
                    JOINT RightHandPinky2
                    {
                      OFFSET -5.091371 -1.332055 -1.772385
                      CHANNELS 3 Zrotation Yrotation Xrotation
                      JOINT RightHandPinky3
                      {
                        OFFSET -3.062664 -4e-06 1e-06
                        CHANNELS 3 Zrotation Yrotation Xrotation
                        JOINT RightHandPinky4
                        {
                          OFFSET -1.546529 4e-06 -2e-06
                          CHANNELS 3 Zrotation Yrotation Xrotation
                          JOINT RightHandPinkyEnd
                          {
                            OFFSET -1.945119 -0.157718 0.057211
                            CHANNELS 3 Zrotation Yrotation Xrotation
                          }
                        }
                      }
                    }
                  }
                }
              }
            }
          }
        }
      }
    }
    JOINT LeftLeg
    {
      OFFSET 10.043214 -8.434526 2.595655
      CHANNELS 3 Zrotation Yrotation Xrotation
      JOINT LeftShin
      {
        OFFSET -1e-06 -43.221752 -0.802913
        CHANNELS 3 Zrotation Yrotation Xrotation
        JOINT LeftFoot
        {
          OFFSET 1e-06 -42.155094 -3.481523
          CHANNELS 3 Zrotation Yrotation Xrotation
          JOINT LeftToeBase
          {
            OFFSET 0.0 -5.059472 13.231529
            CHANNELS 3 Zrotation Yrotation Xrotation
            JOINT LeftToeEnd
            {
              OFFSET -0.009607 -1.647619 6.513017
              CHANNELS 3 Zrotation Yrotation Xrotation
            }
          }
        }
      }
    }
    JOINT RightLeg
    {
      OFFSET -10.047278 -8.29526 2.620317
      CHANNELS 3 Zrotation Yrotation Xrotation
      JOINT RightShin
      {
        OFFSET 1e-06 -43.362206 -0.805556
        CHANNELS 3 Zrotation Yrotation Xrotation
        JOINT RightFoot
        {
          OFFSET 2e-06 -42.117393 -3.478398
          CHANNELS 3 Zrotation Yrotation Xrotation
          JOINT RightToeBase
          {
            OFFSET -0.0 -5.079609 13.284196
            CHANNELS 3 Zrotation Yrotation Xrotation
            JOINT RightToeEnd
            {
              OFFSET 0.009532 -1.634378 6.460591
              CHANNELS 3 Zrotation Yrotation Xrotation
            }
          }
        }
      }
    }
  }
}
MOTION
Frames: 5
Frame Time: 0.03333333333333333
0.0 0.0 0.0 0.0 -0.0 0.0 -2.882305 100.362396 -0.734352 2.594206 0.832819 6.642817 -0.601235 0.934015 0.779324 -0.865903 1.348517 -4.932977 -1.17037 -0.656466 10.64977 2.976789 1.86238 10.19303 -1.031613 -0.240855 -3.713391 1.187372 -1.315358 -7.778603 7.7e-05 -2.2e-05 5e-06 -0.032752 0.163719 -0.111524 0.648995 -3.591193 -10.692207 -0.70934 3.912258 -10.731622 -4.576979 -1.092855 19.748775 -62.987881 8.387768 -12.117894 -1.075979 -77.468666 1.401166 4.439255 -10.844971 27.626141 -5.882108 9.861286 0.70259 -10.93687 -0.360574 7.156208 -0.0 8.774827 -1e-06 -16.098501 17.824039 5.860879 -1.844031 2.498504 -2.507279 -10.163601 4.678946 4.62111 -20.976027 -3e-06 -1e-06 -21.226292 2.451694 -3.594004 0.0 -6e-06 -2e-06 -1.362682 2.240798 -0.746324 -21.334913 0.58491 3.008322 -13.821216 -4e-06 -1e-06 -23.887173 -0.249081 -0.839487 -59.760544 2.327824 -0.637758 -0.294024 1.679687 0.833256 -14.21821 0.093217 1.300582 -34.212048 -0.287563 0.967167 -20.033215 0.964539 1.212843 -0.0 1e-06 2e-06 -3.440389 0.788233 0.501656 -15.928185 -3.167309 2.999707 -6.338826 -0.0 1e-06 -18.123444 3.648183 -4.905675 -5e-06 0.0 -3e-06 0.378474 14.308599 16.887877 61.165314 9.854959 -10.054133 178.663834 63.086285 179.110413 -13.254421 8.722614 11.966347 2.243541 -5.255037 -3.180159 14.282896 -0.826593 6.952507 -4e-06 -12.690605 0.0 15.919911 -17.622026 3.028714 1.665666 -1.955922 -2.878299 4.7278 -4.170589 4.993925 11.020531 3e-06 -0.0 12.109056 -3.735716 -2.866784 2e-06 2e-06 -1e-06 1.291986 -1.92855 -1.49809 14.800136 0.567469 3.865609 14.242579 -1.341734 -6.660657 19.631973 0.143927 -0.648244 50.138988 -1.028037 -6.205444 0.35303 -1.511151 -0.031939 20.222801 3.684311 2.316633 18.787283 4e-06 1e-06 10.751633 -0.479868 1.397906 0.0 0.0 -0.0 3.273808 0.305947 -0.580111 21.486824 11.830379 2.266135 8.16293 2e-06 0.0 18.399092 -3.798983 -4.940574 2e-06 -1e-06 0.0 5.175506 10.947473 -21.922506 -0.127907 -0.554459 55.201065 -8.240627 15.939549 -1.801969 1.983443 -2.343149 -2.446461 -0.0 -1e-06 2e-06 -10.157237 2.975221 0.947182 -0.184632 0.565845 12.595546 12.387393 -9.276922 -2.710918 -1.36127 0.697069 -8.221159 -0.0 -0.0 -1e-06 
0.0 0.0 0.0 0.0 -0.0 0.0 -3.147172 98.145821 0.553965 2.42169 5.064869 6.474769 -0.604162 1.008826 1.934111 -0.975498 1.352312 -4.539736 -1.641831 -0.553696 11.403773 3.700329 1.631728 9.438088 -1.144851 -1.072734 -3.732408 1.762428 -2.216569 -10.342052 7.7e-05 -2.3e-05 6e-06 -0.036321 0.158214 -0.122165 0.635548 -3.593889 -10.639438 -0.70757 3.903409 -10.661604 -4.971853 -2.275559 18.653042 -57.670731 1.059271 -14.386508 1.826609 -87.702713 -1.925766 3.974857 -9.989426 23.555239 -5.882114 9.861295 0.702592 -10.93688 -0.36057 7.15621 -1e-06 8.774832 -1e-06 -15.921878 18.742685 6.44483 -1.844035 2.498507 -2.507279 -10.16361 4.678954 4.62111 -20.976044 2e-06 -1e-06 -21.226307 2.451701 -3.594006 1e-06 -6e-06 -1e-06 -1.362684 2.240799 -0.746324 -21.334932 0.584916 3.008322 -13.821227 1e-06 -1e-06 -23.887194 -0.249076 -0.83949 -60.230358 2.335694 -0.895713 -0.294025 1.679688 0.833256 -14.218223 0.093221 1.30058 -34.212082 -0.287555 0.967162 -20.033232 0.96454 1.212837 -1e-06 1e-06 2e-06 -3.440391 0.788235 0.501658 -15.928201 -3.167306 2.999708 -6.338833 0.0 0.0 -18.123463 3.648188 -4.905678 -5e-06 -0.0 -2e-06 0.428277 14.104819 17.250299 62.001358 12.337485 -9.982503 178.0233 55.116745 178.59613 -13.525376 9.355854 16.346239 2.243543 -5.255041 -3.18016 14.282896 -0.826597 6.952509 0.0 -12.690611 -3e-06 16.113163 -17.613317 2.944037 1.665668 -1.955925 -2.878301 4.727803 -4.17059 4.993927 11.020531 0.0 -1e-06 12.109058 -3.735721 -2.866787 1e-06 2e-06 1e-06 1.291986 -1.928551 -1.498091 14.800132 0.567466 3.86561 14.242578 -1.341742 -6.660663 19.631973 0.14392 -0.648247 50.342598 -0.883022 -6.207396 0.35303 -1.51115 -0.03194 20.222801 3.684307 2.316633 18.787283 1e-06 -2e-06 10.751633 -0.479872 1.397906 0.0 0.0 -1e-06 3.273808 0.305946 -0.58011 21.48682 11.830376 2.266139 8.16293 -1e-06 -0.0 18.399094 -3.798989 -4.94058 3e-06 0.0 -0.0 6.090566 11.692657 -29.414921 -0.255163 -0.408878 56.520363 -9.467683 10.870537 -3.351517 1.919764 -2.3058 -2.933592 0.0 1e-06 2e-06 -8.54728 2.510599 0.799969 -0.192798 0.61706 17.922535 12.344394 -10.649124 -11.923065 -1.429804 0.825237 -6.014797 -0.0 0.0 -1e-06 
0.0 0.0 0.0 0.0 -0.0 0.0 -3.725827 95.777115 2.969203 2.061972 9.78946 6.282336 -0.663133 0.861748 3.059309 -1.076824 1.380632 -4.040596 -2.012241 -0.436189 12.355467 4.612892 1.181324 8.171015 -1.308941 -1.87191 -3.716875 2.338957 -3.205927 -12.762094 7.7e-05 -2.3e-05 6e-06 -0.020839 0.136988 -0.114139 0.639225 -3.600762 -10.555223 -0.684161 3.865749 -10.559906 -5.306087 -3.809701 17.617355 -52.144741 -9.930305 -16.835983 173.171082 -85.109352 -174.067032 5.001529 -8.798009 21.259165 -5.882111 9.861289 0.70259 -10.936875 -0.360573 7.156208 -1e-06 8.774828 1e-06 -15.598495 18.713963 6.745222 -1.844033 2.498505 -2.507279 -10.163604 4.678948 4.621112 -20.976034 -1e-06 1e-06 -21.226299 2.451698 -3.594002 1e-06 -7e-06 0.0 -1.362682 2.240799 -0.746322 -21.334925 0.584913 3.008321 -13.821221 -1e-06 0.0 -23.887182 -0.249078 -0.839486 -60.740429 2.287158 -1.119107 -0.294025 1.679688 0.833256 -14.218214 0.093217 1.300581 -34.212055 -0.287562 0.967168 -20.033222 0.964538 1.212841 -1e-06 1e-06 0.0 -3.44039 0.788234 0.501657 -15.928196 -3.167308 2.999707 -6.338829 -0.0 -0.0 -18.123457 3.648185 -4.905672 -6e-06 0.0 -2e-06 0.891026 13.978249 17.625568 62.898132 14.300549 -8.249858 177.154053 49.829494 177.759125 -13.748672 12.37257 20.262663 2.243542 -5.255042 -3.180161 14.282892 -0.826594 6.952507 0.0 -12.690606 -4e-06 16.183567 -17.990381 2.890961 1.665665 -1.95592 -2.878299 4.727799 -4.170586 4.993924 11.020527 3e-06 -2e-06 12.109055 -3.735717 -2.866785 0.0 0.0 -1e-06 1.291986 -1.928551 -1.49809 14.800129 0.567468 3.865611 14.242568 -1.341739 -6.660658 19.631969 0.143923 -0.648245 50.392899 -0.821313 -6.449718 0.35303 -1.511152 -0.031939 20.222788 3.684309 2.316632 18.787273 4e-06 -0.0 10.751629 -0.479869 1.397906 -0.0 -1e-06 -0.0 3.273806 0.305947 -0.580111 21.486813 11.830372 2.266137 8.162929 2e-06 -0.0 18.399086 -3.798987 -4.940576 3e-06 0.0 -0.0 5.69719 12.52966 -36.739494 -0.201294 -0.242043 54.713276 -10.666803 6.775133 -5.099564 1.826083 -2.178919 -3.342959 -0.0 0.0 1e-06 -6.081234 1.672136 2.594537 -0.212725 0.645699 20.765364 12.391981 -12.223941 -20.075397 -1.460978 0.924957 -3.969437 -0.0 0.0 -1e-06 
0.0 0.0 0.0 0.0 -0.0 0.0 -3.917833 93.823227 5.632584 1.762236 13.578399 6.168998 -0.965769 0.755615 3.945391 -1.208613 1.375396 -3.568584 -2.404936 -0.366375 13.282738 5.439976 0.741263 6.963978 -1.444559 -2.195861 -3.593133 3.146988 -4.000802 -14.728854 7.7e-05 -2.3e-05 6e-06 -0.021284 0.177371 -0.081673 0.641859 -3.551862 -10.527679 -0.690175 3.895192 -10.519819 -5.076075 -5.457576 16.899963 -48.801147 -22.485199 -19.448467 176.683548 -81.981728 -178.003357 8.009833 -9.227873 19.646652 -5.882116 9.861295 0.70259 -10.936886 -0.360572 7.156216 -1e-06 8.774833 -1e-06 -15.09505 18.318459 6.884578 -1.844035 2.498507 -2.50728 -10.163614 4.678952 4.621113 -20.976055 1e-06 -1e-06 -21.226318 2.451703 -3.594007 -1e-06 -6e-06 -0.0 -1.362683 2.240801 -0.746324 -21.334942 0.584915 3.008324 -13.821232 -1e-06 -2e-06 -23.887203 -0.249077 -0.839491 -60.839672 2.256844 -1.206777 -0.294026 1.679688 0.833256 -14.218227 0.093218 1.300582 -34.212097 -0.287559 0.967164 -20.033243 0.96454 1.212841 1e-06 0.0 1e-06 -3.440393 0.788235 0.501656 -15.928206 -3.167309 2.999711 -6.338834 0.0 -1e-06 -18.12347 3.648186 -4.90568 -4e-06 -0.0 -1e-06 0.860346 13.874139 17.903185 65.839111 15.207264 -5.8115 176.028732 51.507412 176.596893 -15.236317 15.594241 22.652388 2.243544 -5.255045 -3.180162 14.282909 -0.826599 6.952512 2e-06 -12.690619 -4e-06 15.842675 -17.932442 2.790765 1.665667 -1.955924 -2.878302 4.727805 -4.170592 4.993929 11.02054 0.0 -0.0 12.109067 -3.735724 -2.866787 -0.0 -1e-06 0.0 1.291987 -1.928551 -1.498092 14.800148 0.567467 3.865615 14.242587 -1.341743 -6.660665 19.63199 0.14392 -0.648245 49.814915 -0.7096 -6.565734 0.35303 -1.511153 -0.03194 20.222815 3.684307 2.316637 18.787296 -1e-06 -0.0 10.751642 -0.479872 1.397906 0.0 0.0 -0.0 3.273809 0.305947 -0.58011 21.486837 11.830383 2.266141 8.162938 1e-06 -0.0 18.399109 -3.798991 -4.940582 3e-06 -0.0 1e-06 3.890294 12.542567 -41.852989 -0.148487 -0.177619 49.79306 -12.531415 3.865436 -6.126765 1.744466 -2.037872 -3.895977 -0.0 0.0 2e-06 -3.779881 1.468001 4.252673 -0.22827 0.6013 23.411024 12.624617 -13.80061 -24.950605 -1.474715 0.9686 -3.958282 0.0 0.0 -1e-06 
0.0 0.0 0.0 0.0 -0.0 0.0 -3.488871 92.116562 8.6761 1.776688 15.365119 6.079947 -1.574518 0.644831 4.582217 -1.439015 1.483636 -3.13558 -3.047516 -0.160893 14.047694 5.840232 0.423815 5.950841 -1.457135 -2.133461 -3.436378 4.174603 -4.239911 -15.736244 7.7e-05 -2.3e-05 6e-06 -0.031268 0.239261 0.001131 0.645168 -3.498628 -10.521345 -0.71563 3.964707 -10.501718 -4.351329 -6.786303 16.487713 -48.633263 -34.316898 -20.254671 178.213867 -80.095139 -179.43869 11.068764 -11.382684 17.676016 -5.88211 9.86129 0.702589 -10.936875 -0.360574 7.15621 -1e-06 8.774828 -2e-06 -14.546105 17.887213 6.861834 -1.844033 2.498506 -2.507281 -10.163604 4.678946 4.62111 -20.976034 -2e-06 0.0 -21.226301 2.451698 -3.594005 1e-06 -6e-06 -1e-06 -1.362682 2.2408 -0.746323 -21.334923 0.584911 3.008324 -13.82122 -1e-06 -0.0 -23.887182 -0.249078 -0.839485 -60.27597 2.301354 -1.234902 -0.294024 1.679687 0.833256 -14.218214 0.093216 1.300581 -34.212055 -0.287561 0.967168 -20.033222 0.964536 1.212842 -1e-06 -1e-06 -1e-06 -3.44039 0.788234 0.501657 -15.928192 -3.167309 2.99971 -6.338829 0.0 -0.0 -18.123455 3.648184 -4.905676 -5e-06 0.0 -2e-06 -0.089553 13.890049 17.886412 71.212608 15.205784 -2.718287 176.166656 61.138664 175.950012 -19.801592 18.264399 22.620188 2.243542 -5.255038 -3.18016 14.282896 -0.826596 6.952509 -3e-06 -12.690608 1e-06 15.363705 -17.370758 2.691872 1.665666 -1.955922 -2.8783 4.727804 -4.170589 4.993928 11.020531 4e-06 1e-06 12.109055 -3.735717 -2.866781 2e-06 1e-06 -0.0 1.291985 -1.92855 -1.49809 14.800138 0.567469 3.865611 14.242576 -1.341739 -6.660657 19.631973 0.143925 -0.648241 49.185978 -0.49878 -6.46373 0.353029 -1.51115 -0.03194 20.222801 3.684309 2.316635 18.787283 4e-06 3e-06 10.751633 -0.479869 1.397907 0.0 -1e-06 -0.0 3.273808 0.305949 -0.58011 21.486822 11.830377 2.266139 8.16293 0.0 1e-06 18.399092 -3.798988 -4.940573 3e-06 -0.0 -1e-06 2.146745 11.252625 -43.843903 -0.250981 -0.244825 45.271328 -14.200885 2.824977 -5.664313 1.66795 -1.91447 -3.34719 0.0 0.0 2e-06 -2.617771 1.584912 4.991411 -0.226643 0.662225 28.267708 13.000209 -14.104841 -25.949135 -1.500656 1.0158 -6.547484 0.0 0.0 -1e-06 
